<svg width="190" height="50" viewBox="0 0 190 50" fill="none" xmlns="http://www.w3.org/2000/svg">
<path d="M62.0801 42.9999V35.1279H64.4201C64.8201 35.1279 65.1841 35.1639 65.5121 35.2359C65.8481 35.3079 66.1321 35.4199 66.3641 35.5719C66.6041 35.7239 66.7881 35.9239 66.9161 36.1719C67.0521 36.4119 67.1201 36.7039 67.1201 37.0479C67.1201 37.4399 67.0201 37.7959 66.8201 38.1159C66.6281 38.4279 66.3441 38.6439 65.9681 38.7639V38.8119C66.4481 38.8999 66.8361 39.0999 67.1321 39.4119C67.4281 39.7239 67.5761 40.1519 67.5761 40.6959C67.5761 41.0799 67.5041 41.4159 67.3601 41.7039C67.2161 41.9919 67.0121 42.2319 66.7481 42.4239C66.4841 42.6159 66.1681 42.7599 65.8001 42.8559C65.4321 42.9519 65.0281 42.9999 64.5881 42.9999H62.0801ZM63.0761 38.4759H64.2401C64.9121 38.4759 65.3961 38.3599 65.6921 38.1279C65.9881 37.8959 66.1361 37.5799 66.1361 37.1799C66.1361 36.7239 65.9801 36.3999 65.6681 36.2079C65.3641 36.0159 64.9041 35.9199 64.2881 35.9199H63.0761V38.4759ZM63.0761 42.2079H64.4441C65.1241 42.2079 65.6521 42.0839 66.0281 41.8359C66.4041 41.5799 66.5921 41.1879 66.5921 40.6599C66.5921 40.1719 66.4081 39.8159 66.0401 39.5919C65.6721 39.3599 65.1401 39.2439 64.4441 39.2439H63.0761V42.2079Z" fill="#BDBDBD"/>
<path d="M71.6811 42.9999V37.1679H72.8211L73.9611 39.9039C74.0491 40.1439 74.1371 40.3839 74.2251 40.6239C74.3131 40.8559 74.4011 41.0879 74.4891 41.3199H74.5371C74.6251 41.0879 74.7131 40.8559 74.8011 40.6239C74.8971 40.3839 74.9851 40.1439 75.0651 39.9039L76.1811 37.1679H77.3091V42.9999H76.4091V40.3839C76.4091 40.2559 76.4131 40.1079 76.4211 39.9399C76.4291 39.7639 76.4371 39.5879 76.4451 39.4119C76.4611 39.2279 76.4731 39.0479 76.4811 38.8719C76.4971 38.6879 76.5131 38.5199 76.5291 38.3679H76.4811C76.3931 38.5999 76.3011 38.8359 76.2051 39.0759C76.1171 39.3079 76.0291 39.5319 75.9411 39.7479L74.8371 42.4479H74.1771L73.0491 39.7479C72.9611 39.5319 72.8691 39.3079 72.7731 39.0759C72.6851 38.8359 72.5971 38.5999 72.5091 38.3679H72.4611C72.4691 38.5199 72.4771 38.6879 72.4851 38.8719C72.5011 39.0479 72.5131 39.2279 72.5211 39.4119C72.5371 39.5879 72.5491 39.7639 72.5571 39.9399C72.5651 40.1079 72.5691 40.2559 72.5691 40.3839V42.9999H71.6811Z" fill="#BDBDBD"/>
<path d="M79.3949 42.9999V37.1679H80.3549V39.5919C80.3549 39.9039 80.3429 40.2479 80.3189 40.6239C80.3029 40.9919 80.2829 41.3639 80.2589 41.7399H80.3069C80.4189 41.5559 80.5469 41.3479 80.6909 41.1159C80.8429 40.8839 80.9709 40.6759 81.0749 40.4919L83.2829 37.1679H84.2069V42.9999H83.2469V40.5759C83.2469 40.2639 83.2549 39.9239 83.2709 39.5559C83.2949 39.1799 83.3189 38.7999 83.3429 38.4159H83.2949C83.1829 38.5999 83.0509 38.8119 82.8989 39.0519C82.7549 39.2839 82.6309 39.4879 82.5269 39.6639L80.3069 42.9999H79.3949Z" fill="#BDBDBD"/>
<path d="M86.3 45.4599V37.1679H87.116L87.2 37.8399H87.236C87.5 37.6159 87.788 37.4239 88.1 37.2639C88.42 37.1039 88.752 37.0239 89.096 37.0239C89.472 37.0239 89.804 37.0959 90.092 37.2399C90.38 37.3759 90.62 37.5759 90.812 37.8399C91.004 38.0959 91.148 38.4079 91.244 38.7759C91.348 39.1359 91.4 39.5439 91.4 39.9999C91.4 40.4959 91.332 40.9399 91.196 41.3319C91.06 41.7159 90.876 42.0439 90.644 42.3159C90.412 42.5879 90.144 42.7959 89.84 42.9399C89.536 43.0759 89.216 43.1439 88.88 43.1439C88.608 43.1439 88.336 43.0839 88.064 42.9639C87.8 42.8439 87.532 42.6799 87.26 42.4719L87.284 43.4919V45.4599H86.3ZM88.712 42.3159C88.952 42.3159 89.172 42.2639 89.372 42.1599C89.58 42.0479 89.756 41.8959 89.9 41.7039C90.052 41.5039 90.168 41.2599 90.248 40.9719C90.336 40.6839 90.38 40.3599 90.38 39.9999C90.38 39.6799 90.352 39.3879 90.296 39.1239C90.24 38.8599 90.148 38.6359 90.02 38.4519C89.9 38.2599 89.74 38.1119 89.54 38.0079C89.348 37.9039 89.116 37.8519 88.844 37.8519C88.596 37.8519 88.344 37.9199 88.088 38.0559C87.84 38.1919 87.572 38.3879 87.284 38.6439V41.7039C87.548 41.9279 87.804 42.0879 88.052 42.1839C88.3 42.2719 88.52 42.3159 88.712 42.3159Z" fill="#BDBDBD"/>
<path d="M95.4403 43.1439C95.0483 43.1439 94.6803 43.0759 94.3363 42.9399C94.0003 42.7959 93.7043 42.5959 93.4483 42.3399C93.2003 42.0759 93.0043 41.7559 92.8603 41.3799C92.7163 41.0039 92.6443 40.5759 92.6443 40.0959C92.6443 39.6159 92.7163 39.1879 92.8603 38.8119C93.0123 38.4279 93.2083 38.1039 93.4483 37.8399C93.6963 37.5759 93.9763 37.3759 94.2883 37.2399C94.6003 37.0959 94.9243 37.0239 95.2603 37.0239C95.6283 37.0239 95.9563 37.0879 96.2443 37.2159C96.5403 37.3439 96.7843 37.5279 96.9763 37.7679C97.1763 38.0079 97.3283 38.2959 97.4323 38.6319C97.5363 38.9679 97.5883 39.3439 97.5883 39.7599C97.5883 39.8639 97.5843 39.9679 97.5763 40.0719C97.5763 40.1679 97.5683 40.2519 97.5523 40.3239H93.6163C93.6563 40.9479 93.8483 41.4439 94.1923 41.8119C94.5443 42.1719 95.0003 42.3519 95.5603 42.3519C95.8403 42.3519 96.0963 42.3119 96.3283 42.2319C96.5683 42.1439 96.7963 42.0319 97.0123 41.8959L97.3603 42.5439C97.1043 42.7039 96.8203 42.8439 96.5083 42.9639C96.1963 43.0839 95.8403 43.1439 95.4403 43.1439ZM93.6043 39.6159H96.7243C96.7243 39.0239 96.5963 38.5759 96.3403 38.2719C96.0923 37.9599 95.7403 37.8039 95.2843 37.8039C95.0763 37.8039 94.8763 37.8439 94.6843 37.9239C94.5003 38.0039 94.3323 38.1239 94.1803 38.2839C94.0283 38.4359 93.9003 38.6239 93.7963 38.8479C93.7003 39.0719 93.6363 39.3279 93.6043 39.6159Z" fill="#BDBDBD"/>
<path d="M101.672 42.9999V37.1679H102.812L103.952 39.9039C104.04 40.1439 104.128 40.3839 104.216 40.6239C104.304 40.8559 104.392 41.0879 104.48 41.3199H104.528C104.616 41.0879 104.704 40.8559 104.792 40.6239C104.888 40.3839 104.976 40.1439 105.056 39.9039L106.172 37.1679H107.3V42.9999H106.4V40.3839C106.4 40.2559 106.404 40.1079 106.412 39.9399C106.42 39.7639 106.428 39.5879 106.436 39.4119C106.452 39.2279 106.464 39.0479 106.472 38.8719C106.488 38.6879 106.504 38.5199 106.52 38.3679H106.472C106.384 38.5999 106.292 38.8359 106.196 39.0759C106.108 39.3079 106.02 39.5319 105.932 39.7479L104.828 42.4479H104.168L103.04 39.7479C102.952 39.5319 102.86 39.3079 102.764 39.0759C102.676 38.8359 102.588 38.5999 102.5 38.3679H102.452C102.46 38.5199 102.468 38.6879 102.476 38.8719C102.492 39.0479 102.504 39.2279 102.512 39.4119C102.528 39.5879 102.54 39.7639 102.548 39.9399C102.556 40.1079 102.56 40.2559 102.56 40.3839V42.9999H101.672Z" fill="#BDBDBD"/>
<path d="M109.385 42.9999V37.1679H110.369V39.5319H113.177V37.1679H114.161V42.9999H113.177V40.4079H110.369V42.9999H109.385Z" fill="#BDBDBD"/>
<path d="M118.512 43.1439C118.152 43.1439 117.808 43.0759 117.48 42.9399C117.16 42.8039 116.876 42.6079 116.628 42.3519C116.38 42.0879 116.18 41.7679 116.028 41.3919C115.884 41.0079 115.812 40.5759 115.812 40.0959C115.812 39.6079 115.884 39.1759 116.028 38.7999C116.18 38.4159 116.38 38.0919 116.628 37.8279C116.876 37.5639 117.16 37.3639 117.48 37.2279C117.808 37.0919 118.152 37.0239 118.512 37.0239C118.872 37.0239 119.212 37.0919 119.532 37.2279C119.86 37.3639 120.148 37.5639 120.396 37.8279C120.644 38.0919 120.84 38.4159 120.984 38.7999C121.136 39.1759 121.212 39.6079 121.212 40.0959C121.212 40.5759 121.136 41.0079 120.984 41.3919C120.84 41.7679 120.644 42.0879 120.396 42.3519C120.148 42.6079 119.86 42.8039 119.532 42.9399C119.212 43.0759 118.872 43.1439 118.512 43.1439ZM118.512 42.3279C118.76 42.3279 118.988 42.2759 119.196 42.1719C119.404 42.0599 119.58 41.9079 119.724 41.7159C119.876 41.5159 119.992 41.2799 120.072 41.0079C120.152 40.7359 120.192 40.4319 120.192 40.0959C120.192 39.7599 120.152 39.4559 120.072 39.1839C119.992 38.9039 119.876 38.6639 119.724 38.4639C119.58 38.2639 119.404 38.1119 119.196 38.0079C118.988 37.8959 118.76 37.8399 118.512 37.8399C118.264 37.8399 118.036 37.8959 117.828 38.0079C117.62 38.1119 117.44 38.2639 117.288 38.4639C117.144 38.6639 117.032 38.9039 116.952 39.1839C116.872 39.4559 116.832 39.7599 116.832 40.0959C116.832 40.4319 116.872 40.7359 116.952 41.0079C117.032 41.2799 117.144 41.5159 117.288 41.7159C117.44 41.9079 117.62 42.0599 117.828 42.1719C118.036 42.2759 118.264 42.3279 118.512 42.3279Z" fill="#BDBDBD"/>
<path d="M122.868 42.9999V37.1679H126.504V37.9719H123.852V42.9999H122.868Z" fill="#BDBDBD"/>
<path d="M129.674 43.1439C129.314 43.1439 128.97 43.0759 128.642 42.9399C128.322 42.8039 128.038 42.6079 127.79 42.3519C127.542 42.0879 127.342 41.7679 127.19 41.3919C127.046 41.0079 126.974 40.5759 126.974 40.0959C126.974 39.6079 127.046 39.1759 127.19 38.7999C127.342 38.4159 127.542 38.0919 127.79 37.8279C128.038 37.5639 128.322 37.3639 128.642 37.2279C128.97 37.0919 129.314 37.0239 129.674 37.0239C130.034 37.0239 130.374 37.0919 130.694 37.2279C131.022 37.3639 131.31 37.5639 131.558 37.8279C131.806 38.0919 132.002 38.4159 132.146 38.7999C132.298 39.1759 132.374 39.6079 132.374 40.0959C132.374 40.5759 132.298 41.0079 132.146 41.3919C132.002 41.7679 131.806 42.0879 131.558 42.3519C131.31 42.6079 131.022 42.8039 130.694 42.9399C130.374 43.0759 130.034 43.1439 129.674 43.1439ZM129.674 42.3279C129.922 42.3279 130.15 42.2759 130.358 42.1719C130.566 42.0599 130.742 41.9079 130.886 41.7159C131.038 41.5159 131.154 41.2799 131.234 41.0079C131.314 40.7359 131.354 40.4319 131.354 40.0959C131.354 39.7599 131.314 39.4559 131.234 39.1839C131.154 38.9039 131.038 38.6639 130.886 38.4639C130.742 38.2639 130.566 38.1119 130.358 38.0079C130.15 37.8959 129.922 37.8399 129.674 37.8399C129.426 37.8399 129.198 37.8959 128.99 38.0079C128.782 38.1119 128.602 38.2639 128.45 38.4639C128.306 38.6639 128.194 38.9039 128.114 39.1839C128.034 39.4559 127.994 39.7599 127.994 40.0959C127.994 40.4319 128.034 40.7359 128.114 41.0079C128.194 41.2799 128.306 41.5159 128.45 41.7159C128.602 41.9079 128.782 42.0599 128.99 42.1719C129.198 42.2759 129.426 42.3279 129.674 42.3279Z" fill="#BDBDBD"/>
<path d="M135.736 42.9999L137.644 39.9519L135.88 37.1679H136.948L137.728 38.4519C137.816 38.6119 137.908 38.7759 138.004 38.9439C138.1 39.1039 138.2 39.2639 138.304 39.4239H138.352C138.44 39.2639 138.528 39.1039 138.616 38.9439C138.704 38.7759 138.792 38.6119 138.88 38.4519L139.588 37.1679H140.62L138.856 40.0599L140.752 42.9999H139.684L138.832 41.6439C138.728 41.4679 138.624 41.2919 138.52 41.1159C138.416 40.9399 138.308 40.7679 138.196 40.5999H138.148C138.044 40.7679 137.944 40.9399 137.848 41.1159C137.752 41.2839 137.656 41.4599 137.56 41.6439L136.768 42.9999H135.736Z" fill="#BDBDBD"/>
<path d="M144.096 43.1439C143.736 43.1439 143.392 43.0759 143.064 42.9399C142.744 42.8039 142.46 42.6079 142.212 42.3519C141.964 42.0879 141.764 41.7679 141.612 41.3919C141.468 41.0079 141.396 40.5759 141.396 40.0959C141.396 39.6079 141.468 39.1759 141.612 38.7999C141.764 38.4159 141.964 38.0919 142.212 37.8279C142.46 37.5639 142.744 37.3639 143.064 37.2279C143.392 37.0919 143.736 37.0239 144.096 37.0239C144.456 37.0239 144.796 37.0919 145.116 37.2279C145.444 37.3639 145.732 37.5639 145.98 37.8279C146.228 38.0919 146.424 38.4159 146.568 38.7999C146.72 39.1759 146.796 39.6079 146.796 40.0959C146.796 40.5759 146.72 41.0079 146.568 41.3919C146.424 41.7679 146.228 42.0879 145.98 42.3519C145.732 42.6079 145.444 42.8039 145.116 42.9399C144.796 43.0759 144.456 43.1439 144.096 43.1439ZM144.096 42.3279C144.344 42.3279 144.572 42.2759 144.78 42.1719C144.988 42.0599 145.164 41.9079 145.308 41.7159C145.46 41.5159 145.576 41.2799 145.656 41.0079C145.736 40.7359 145.776 40.4319 145.776 40.0959C145.776 39.7599 145.736 39.4559 145.656 39.1839C145.576 38.9039 145.46 38.6639 145.308 38.4639C145.164 38.2639 144.988 38.1119 144.78 38.0079C144.572 37.8959 144.344 37.8399 144.096 37.8399C143.848 37.8399 143.62 37.8959 143.412 38.0079C143.204 38.1119 143.024 38.2639 142.872 38.4639C142.728 38.6639 142.616 38.9039 142.536 39.1839C142.456 39.4559 142.416 39.7599 142.416 40.0959C142.416 40.4319 142.456 40.7359 142.536 41.0079C142.616 41.2799 142.728 41.5159 142.872 41.7159C143.024 41.9079 143.204 42.0599 143.412 42.1719C143.62 42.2759 143.848 42.3279 144.096 42.3279Z" fill="#BDBDBD"/>
<path d="M148.452 45.4599V37.1679H149.268L149.352 37.8399H149.388C149.652 37.6159 149.94 37.4239 150.252 37.2639C150.572 37.1039 150.904 37.0239 151.248 37.0239C151.624 37.0239 151.956 37.0959 152.244 37.2399C152.532 37.3759 152.772 37.5759 152.964 37.8399C153.156 38.0959 153.3 38.4079 153.396 38.7759C153.5 39.1359 153.552 39.5439 153.552 39.9999C153.552 40.4959 153.484 40.9399 153.348 41.3319C153.212 41.7159 153.028 42.0439 152.796 42.3159C152.564 42.5879 152.296 42.7959 151.992 42.9399C151.688 43.0759 151.368 43.1439 151.032 43.1439C150.76 43.1439 150.488 43.0839 150.216 42.9639C149.952 42.8439 149.684 42.6799 149.412 42.4719L149.436 43.4919V45.4599H148.452ZM150.864 42.3159C151.104 42.3159 151.324 42.2639 151.524 42.1599C151.732 42.0479 151.908 41.8959 152.052 41.7039C152.204 41.5039 152.32 41.2599 152.4 40.9719C152.488 40.6839 152.532 40.3599 152.532 39.9999C152.532 39.6799 152.504 39.3879 152.448 39.1239C152.392 38.8599 152.3 38.6359 152.172 38.4519C152.052 38.2599 151.892 38.1119 151.692 38.0079C151.5 37.9039 151.268 37.8519 150.996 37.8519C150.748 37.8519 150.496 37.9199 150.24 38.0559C149.992 38.1919 149.724 38.3879 149.436 38.6439V41.7039C149.7 41.9279 149.956 42.0879 150.204 42.1839C150.452 42.2719 150.672 42.3159 150.864 42.3159Z" fill="#BDBDBD"/>
<path d="M157.496 43.1439C157.136 43.1439 156.792 43.0759 156.464 42.9399C156.144 42.8039 155.86 42.6079 155.612 42.3519C155.364 42.0879 155.164 41.7679 155.012 41.3919C154.868 41.0079 154.796 40.5759 154.796 40.0959C154.796 39.6079 154.868 39.1759 155.012 38.7999C155.164 38.4159 155.364 38.0919 155.612 37.8279C155.86 37.5639 156.144 37.3639 156.464 37.2279C156.792 37.0919 157.136 37.0239 157.496 37.0239C157.856 37.0239 158.196 37.0919 158.516 37.2279C158.844 37.3639 159.132 37.5639 159.38 37.8279C159.628 38.0919 159.824 38.4159 159.968 38.7999C160.12 39.1759 160.196 39.6079 160.196 40.0959C160.196 40.5759 160.12 41.0079 159.968 41.3919C159.824 41.7679 159.628 42.0879 159.38 42.3519C159.132 42.6079 158.844 42.8039 158.516 42.9399C158.196 43.0759 157.856 43.1439 157.496 43.1439ZM157.496 42.3279C157.744 42.3279 157.972 42.2759 158.18 42.1719C158.388 42.0599 158.564 41.9079 158.708 41.7159C158.86 41.5159 158.976 41.2799 159.056 41.0079C159.136 40.7359 159.176 40.4319 159.176 40.0959C159.176 39.7599 159.136 39.4559 159.056 39.1839C158.976 38.9039 158.86 38.6639 158.708 38.4639C158.564 38.2639 158.388 38.1119 158.18 38.0079C157.972 37.8959 157.744 37.8399 157.496 37.8399C157.248 37.8399 157.02 37.8959 156.812 38.0079C156.604 38.1119 156.424 38.2639 156.272 38.4639C156.128 38.6639 156.016 38.9039 155.936 39.1839C155.856 39.4559 155.816 39.7599 155.816 40.0959C155.816 40.4319 155.856 40.7359 155.936 41.0079C156.016 41.2799 156.128 41.5159 156.272 41.7159C156.424 41.9079 156.604 42.0599 156.812 42.1719C157.02 42.2759 157.248 42.3279 157.496 42.3279Z" fill="#BDBDBD"/>
<path d="M161.852 42.9999V37.1679H162.836V42.1959H164.888V37.1679H165.836V42.1959H167.9V37.1679H168.872V42.9999H161.852Z" fill="#BDBDBD"/>
<path d="M173.324 43.1439C172.932 43.1439 172.564 43.0759 172.22 42.9399C171.884 42.7959 171.588 42.5959 171.332 42.3399C171.084 42.0759 170.888 41.7559 170.744 41.3799C170.6 41.0039 170.528 40.5759 170.528 40.0959C170.528 39.6159 170.6 39.1879 170.744 38.8119C170.896 38.4279 171.092 38.1039 171.332 37.8399C171.58 37.5759 171.86 37.3759 172.172 37.2399C172.484 37.0959 172.808 37.0239 173.144 37.0239C173.512 37.0239 173.84 37.0879 174.128 37.2159C174.424 37.3439 174.668 37.5279 174.86 37.7679C175.06 38.0079 175.212 38.2959 175.316 38.6319C175.42 38.9679 175.472 39.3439 175.472 39.7599C175.472 39.8639 175.468 39.9679 175.46 40.0719C175.46 40.1679 175.452 40.2519 175.436 40.3239H171.5C171.54 40.9479 171.732 41.4439 172.076 41.8119C172.428 42.1719 172.884 42.3519 173.444 42.3519C173.724 42.3519 173.98 42.3119 174.212 42.2319C174.452 42.1439 174.68 42.0319 174.896 41.8959L175.244 42.5439C174.988 42.7039 174.704 42.8439 174.392 42.9639C174.08 43.0839 173.724 43.1439 173.324 43.1439ZM171.488 39.6159H174.608C174.608 39.0239 174.48 38.5759 174.224 38.2719C173.976 37.9599 173.624 37.8039 173.168 37.8039C172.96 37.8039 172.76 37.8439 172.568 37.9239C172.384 38.0039 172.216 38.1239 172.064 38.2839C171.912 38.4359 171.784 38.6239 171.68 38.8479C171.584 39.0719 171.52 39.3279 171.488 39.6159Z" fill="#BDBDBD"/>
<path d="M177.034 42.9999V37.1679H180.67V37.9719H178.018V42.9999H177.034Z" fill="#BDBDBD"/>
<path d="M183.84 43.1439C183.48 43.1439 183.136 43.0759 182.808 42.9399C182.488 42.8039 182.204 42.6079 181.956 42.3519C181.708 42.0879 181.508 41.7679 181.356 41.3919C181.212 41.0079 181.14 40.5759 181.14 40.0959C181.14 39.6079 181.212 39.1759 181.356 38.7999C181.508 38.4159 181.708 38.0919 181.956 37.8279C182.204 37.5639 182.488 37.3639 182.808 37.2279C183.136 37.0919 183.48 37.0239 183.84 37.0239C184.2 37.0239 184.54 37.0919 184.86 37.2279C185.188 37.3639 185.476 37.5639 185.724 37.8279C185.972 38.0919 186.168 38.4159 186.312 38.7999C186.464 39.1759 186.54 39.6079 186.54 40.0959C186.54 40.5759 186.464 41.0079 186.312 41.3919C186.168 41.7679 185.972 42.0879 185.724 42.3519C185.476 42.6079 185.188 42.8039 184.86 42.9399C184.54 43.0759 184.2 43.1439 183.84 43.1439ZM183.84 42.3279C184.088 42.3279 184.316 42.2759 184.524 42.1719C184.732 42.0599 184.908 41.9079 185.052 41.7159C185.204 41.5159 185.32 41.2799 185.4 41.0079C185.48 40.7359 185.52 40.4319 185.52 40.0959C185.52 39.7599 185.48 39.4559 185.4 39.1839C185.32 38.9039 185.204 38.6639 185.052 38.4639C184.908 38.2639 184.732 38.1119 184.524 38.0079C184.316 37.8959 184.088 37.8399 183.84 37.8399C183.592 37.8399 183.364 37.8959 183.156 38.0079C182.948 38.1119 182.768 38.2639 182.616 38.4639C182.472 38.6639 182.36 38.9039 182.28 39.1839C182.2 39.4559 182.16 39.7599 182.16 40.0959C182.16 40.4319 182.2 40.7359 182.28 41.0079C182.36 41.2799 182.472 41.5159 182.616 41.7159C182.768 41.9079 182.948 42.0599 183.156 42.1719C183.364 42.2759 183.592 42.3279 183.84 42.3279Z" fill="#BDBDBD"/>
<path d="M62.7261 29.75C62.5506 29.75 62.3991 29.6833 62.2715 29.55C62.1439 29.4167 62.0801 29.2583 62.0801 29.075V12.925C62.0801 12.7417 62.1439 12.5833 62.2715 12.45C62.3991 12.3167 62.5506 12.25 62.7261 12.25H69.9758C72.209 12.25 73.9636 12.7667 75.2396 13.8C76.5317 14.8333 77.1777 16.3583 77.1777 18.375C77.1777 20.375 76.5396 21.8667 75.2636 22.85C73.9875 23.8167 72.2249 24.3 69.9758 24.3H68.301V29.075C68.301 29.2583 68.2372 29.4167 68.1096 29.55C67.9819 29.6833 67.8304 29.75 67.6549 29.75H62.7261ZM69.8562 19.675C70.1433 19.675 70.3985 19.5667 70.6218 19.35C70.8451 19.1167 70.9568 18.775 70.9568 18.325C70.9568 17.9417 70.8691 17.6083 70.6936 17.325C70.5181 17.0417 70.239 16.9 69.8562 16.9H68.1813V19.675H69.8562Z" fill="#FB8C00"/>
<path d="M87.4679 30C85.0753 30 83.1691 29.425 81.7495 28.275C80.3299 27.125 79.5722 25.45 79.4765 23.25C79.4605 22.8 79.4526 22.075 79.4526 21.075C79.4526 20.0583 79.4605 19.3167 79.4765 18.85C79.5243 17.4167 79.8832 16.1833 80.5532 15.15C81.2391 14.1167 82.1722 13.3333 83.3526 12.8C84.533 12.2667 85.9047 12 87.4679 12C89.0311 12 90.4029 12.2667 91.5833 12.8C92.7637 13.3333 93.6888 14.1167 94.3588 15.15C95.0447 16.1833 95.4115 17.4167 95.4594 18.85C95.4913 19.7833 95.5072 20.525 95.5072 21.075C95.5072 21.625 95.4913 22.35 95.4594 23.25C95.3637 25.45 94.606 27.125 93.1864 28.275C91.7667 29.425 89.8606 30 87.4679 30ZM87.4679 25.125C88.0103 25.125 88.433 24.9583 88.736 24.625C89.0551 24.2917 89.2225 23.7833 89.2385 23.1C89.2704 22.1333 89.2864 21.425 89.2864 20.975C89.2864 20.4917 89.2704 19.8 89.2385 18.9C89.2225 18.2167 89.0551 17.7083 88.736 17.375C88.417 17.0417 87.9943 16.875 87.4679 16.875C86.9416 16.875 86.5189 17.0417 86.1998 17.375C85.8808 17.7083 85.7133 18.2167 85.6974 18.9C85.6814 19.35 85.6735 20.0417 85.6735 20.975C85.6735 21.9083 85.6814 22.6167 85.6974 23.1C85.7133 23.7833 85.8728 24.2917 86.1759 24.625C86.4949 24.9583 86.9256 25.125 87.4679 25.125Z" fill="#FB8C00"/>
<path d="M105.609 30C103.918 30 102.482 29.7583 101.302 29.275C100.138 28.7917 99.2602 28.15 98.67 27.35C98.0798 26.5333 97.7688 25.6417 97.7369 24.675C97.7369 24.525 97.7847 24.4 97.8804 24.3C97.9921 24.1833 98.1197 24.125 98.2633 24.125H102.809C103.033 24.125 103.208 24.1583 103.336 24.225C103.479 24.275 103.647 24.3833 103.838 24.55C104.301 24.9333 104.891 25.125 105.609 25.125C106.151 25.125 106.582 25.0667 106.901 24.95C107.236 24.8167 107.403 24.6417 107.403 24.425C107.403 24.125 107.188 23.9 106.757 23.75C106.326 23.5833 105.513 23.4167 104.317 23.25C100.201 22.6833 98.1436 20.85 98.1436 17.75C98.1436 16.6333 98.4467 15.6417 99.0528 14.775C99.6749 13.8917 100.536 13.2083 101.637 12.725C102.738 12.2417 104.006 12 105.441 12C106.941 12 108.257 12.2667 109.389 12.8C110.522 13.3333 111.391 14.0083 111.997 14.825C112.603 15.625 112.922 16.4083 112.954 17.175C112.954 17.325 112.898 17.4583 112.787 17.575C112.691 17.675 112.579 17.725 112.452 17.725H107.666C107.443 17.725 107.268 17.7 107.14 17.65C107.012 17.5833 106.869 17.475 106.709 17.325C106.374 17.025 105.952 16.875 105.441 16.875C104.676 16.875 104.293 17.1083 104.293 17.575C104.293 17.825 104.476 18.0333 104.843 18.2C105.226 18.3667 105.928 18.5167 106.949 18.65C108.544 18.8667 109.82 19.1917 110.777 19.625C111.75 20.0583 112.452 20.6417 112.882 21.375C113.329 22.0917 113.552 23 113.552 24.1C113.552 25.2833 113.209 26.325 112.523 27.225C111.838 28.1083 110.888 28.7917 109.676 29.275C108.48 29.7583 107.124 30 105.609 30Z" fill="#FB8C00"/>
<path d="M116.908 29.75C116.733 29.75 116.581 29.6833 116.454 29.55C116.326 29.4167 116.262 29.2583 116.262 29.075V12.925C116.262 12.7417 116.326 12.5833 116.454 12.45C116.581 12.3167 116.733 12.25 116.908 12.25H121.789C121.965 12.25 122.116 12.3167 122.244 12.45C122.372 12.5833 122.435 12.7417 122.435 12.925V29.075C122.435 29.2583 122.372 29.4167 122.244 29.55C122.116 29.6833 121.965 29.75 121.789 29.75H116.908Z" fill="#FB8C00"/>
<path d="M129.303 29.75C129.127 29.75 128.976 29.6833 128.848 29.55C128.721 29.4167 128.657 29.2583 128.657 29.075V17.625H124.685C124.51 17.625 124.358 17.5583 124.23 17.425C124.103 17.2917 124.039 17.1333 124.039 16.95V12.925C124.039 12.7417 124.103 12.5833 124.23 12.45C124.358 12.3167 124.51 12.25 124.685 12.25H138.706C138.881 12.25 139.033 12.3167 139.161 12.45C139.288 12.5833 139.352 12.7417 139.352 12.925V16.95C139.352 17.1333 139.288 17.2917 139.161 17.425C139.033 17.5583 138.881 17.625 138.706 17.625H134.734V29.075C134.734 29.2583 134.67 29.4167 134.543 29.55C134.415 29.6833 134.264 29.75 134.088 29.75H129.303Z" fill="white"/>
<path d="M142.674 29.75C142.498 29.75 142.347 29.6833 142.219 29.55C142.091 29.4167 142.028 29.2583 142.028 29.075V12.925C142.028 12.7417 142.091 12.5833 142.219 12.45C142.347 12.3167 142.498 12.25 142.674 12.25H147.555C147.73 12.25 147.882 12.3167 148.009 12.45C148.137 12.5833 148.201 12.7417 148.201 12.925V29.075C148.201 29.2583 148.137 29.4167 148.009 29.55C147.882 29.6833 147.73 29.75 147.555 29.75H142.674Z" fill="white"/>
<path d="M152.44 29.75C152.264 29.75 152.113 29.6833 151.985 29.55C151.857 29.4167 151.794 29.2583 151.794 29.075V12.925C151.794 12.7417 151.857 12.5833 151.985 12.45C152.113 12.3167 152.264 12.25 152.44 12.25H156.22C156.667 12.25 157.01 12.475 157.249 12.925L160.718 18.925L164.188 12.925C164.427 12.475 164.77 12.25 165.216 12.25H168.997C169.172 12.25 169.324 12.3167 169.451 12.45C169.579 12.5833 169.643 12.7417 169.643 12.925V29.075C169.643 29.2583 169.579 29.4167 169.451 29.55C169.324 29.6833 169.172 29.75 168.997 29.75H164.666C164.491 29.75 164.339 29.6833 164.211 29.55C164.084 29.4167 164.02 29.2583 164.02 29.075V22.225L162.441 24.925C162.329 25.1083 162.202 25.2583 162.058 25.375C161.93 25.4917 161.763 25.55 161.556 25.55H159.881C159.673 25.55 159.498 25.4917 159.354 25.375C159.227 25.2583 159.107 25.1083 158.995 24.925L157.416 22.225V29.075C157.416 29.2583 157.353 29.4167 157.225 29.55C157.097 29.6833 156.946 29.75 156.77 29.75H152.44Z" fill="white"/>
<path d="M173.888 29.75C173.713 29.75 173.561 29.6833 173.434 29.55C173.306 29.4167 173.242 29.2583 173.242 29.075V12.925C173.242 12.7417 173.306 12.5833 173.434 12.45C173.561 12.3167 173.713 12.25 173.888 12.25H186.163C186.338 12.25 186.49 12.3167 186.617 12.45C186.745 12.5833 186.809 12.7417 186.809 12.925V16.45C186.809 16.6333 186.745 16.7917 186.617 16.925C186.49 17.0583 186.338 17.125 186.163 17.125H178.985V18.7H185.636C185.812 18.7 185.963 18.7667 186.091 18.9C186.218 19.0333 186.282 19.1917 186.282 19.375V22.625C186.282 22.8083 186.218 22.9667 186.091 23.1C185.963 23.2333 185.812 23.3 185.636 23.3H178.985V24.875H186.354C186.53 24.875 186.681 24.9417 186.809 25.075C186.936 25.2083 187 25.3667 187 25.55V29.075C187 29.2583 186.936 29.4167 186.809 29.55C186.681 29.6833 186.53 29.75 186.354 29.75H173.888Z" fill="white"/>
<circle cx="25" cy="25" r="25" fill="white"/>
<path fill-rule="evenodd" clip-rule="evenodd" d="M39.3333 15.0833L31.0833 32.25C33.5833 31 35.5 27.5833 36.4167 25.5833C34.1667 30.9167 31.0833 35.25 26.6667 38.0833L39.3333 15.0833ZM44 25C44 24.0833 43.9167 23.0833 43.8333 22.1667C40.4167 31.75 31.25 41.6667 15.5 41.4167C18.3333 43.0833 21.5833 44 25 44C35.5 44 44 35.5 44 25ZM14.0833 25.9167L21.75 33.75L25.6667 37.75L38.4167 15.8333L27.3333 30.25L14.0833 25.9167ZM6 25C6 30.9167 8.75 36.25 13 39.75C16.3333 39.3333 19.1667 38.5 21.5833 37.3333L13.4167 25.75L13 25.3333L13.5833 25.4167L25.0833 27.5833L39.1667 14.25L33.0833 18.9167L32.6667 19.1667C34.5833 16 35.9167 12.6667 35.5833 9.16667C32.5 7.16667 28.9167 6 25 6C14.5 6 6 14.5 6 25ZM44.9167 9.91667C45.5 12.25 45.5 15.1667 44.8333 18.25C45.5833 20.4167 46 22.6667 46 25C46 36.5833 36.5833 46 25 46C19.9167 46 15.25 44.1667 11.5833 41.1667C9.5 40.9167 7.25 40.5 4.91667 39.9167C9.5 46.0833 16.8333 50 25 50C38.8333 50 50 38.8333 50 25C50 19.3333 48.0833 14.1667 44.9167 9.91667ZM10.25 39.9167C6.41667 36.1667 4 30.8333 4 25C4 13.4167 13.4167 4 25 4C28.6667 4 32.0833 4.91667 35 6.58333C34.4167 4.75 33.4167 2.91667 31.8333 1C29.6667 0.333333 27.4167 0 25 0C16.8333 0 9.58333 3.91667 5 10C1.83333 14.1667 0 19.3333 0 25C0 30.5833 1.83333 35.75 4.91667 39.9167C6.83333 40 8.58333 40 10.25 39.9167Z" fill="url(#paint0_linear_122_22522)"/>
<defs>
<linearGradient id="paint0_linear_122_22522" x1="42.2675" y1="7.73234" x2="7.15383" y2="42.846" gradientUnits="userSpaceOnUse">
<stop stop-color="#FFA726"/>
<stop offset="1" stop-color="#FB8C00"/>
</linearGradient>
</defs>
</svg>
