<svg width="190" height="50" viewBox="0 0 190 50" fill="none" xmlns="http://www.w3.org/2000/svg">
<path d="M62.0801 43V35.128H64.4201C64.8201 35.128 65.1841 35.164 65.5121 35.236C65.8481 35.308 66.1321 35.42 66.3641 35.572C66.6041 35.724 66.7881 35.924 66.9161 36.172C67.0521 36.412 67.1201 36.704 67.1201 37.048C67.1201 37.44 67.0201 37.796 66.8201 38.116C66.6281 38.428 66.3441 38.644 65.9681 38.764V38.812C66.4481 38.9 66.8361 39.1 67.1321 39.412C67.4281 39.724 67.5761 40.152 67.5761 40.696C67.5761 41.08 67.5041 41.416 67.3601 41.704C67.2161 41.992 67.0121 42.232 66.7481 42.424C66.4841 42.616 66.1681 42.76 65.8001 42.856C65.4321 42.952 65.0281 43 64.5881 43H62.0801ZM63.0761 38.476H64.2401C64.9121 38.476 65.3961 38.36 65.6921 38.128C65.9881 37.896 66.1361 37.58 66.1361 37.18C66.1361 36.724 65.9801 36.4 65.6681 36.208C65.3641 36.016 64.9041 35.92 64.2881 35.92H63.0761V38.476ZM63.0761 42.208H64.4441C65.1241 42.208 65.6521 42.084 66.0281 41.836C66.4041 41.58 66.5921 41.188 66.5921 40.66C66.5921 40.172 66.4081 39.816 66.0401 39.592C65.6721 39.36 65.1401 39.244 64.4441 39.244H63.0761V42.208Z" fill="#BDBDBD"/>
<path d="M71.6811 43V37.168H72.8211L73.9611 39.904C74.0491 40.144 74.1371 40.384 74.2251 40.624C74.3131 40.856 74.4011 41.088 74.4891 41.32H74.5371C74.6251 41.088 74.7131 40.856 74.8011 40.624C74.8971 40.384 74.9851 40.144 75.0651 39.904L76.1811 37.168H77.3091V43H76.4091V40.384C76.4091 40.256 76.4131 40.108 76.4211 39.94C76.4291 39.764 76.4371 39.588 76.4451 39.412C76.4611 39.228 76.4731 39.048 76.4811 38.872C76.4971 38.688 76.5131 38.52 76.5291 38.368H76.4811C76.3931 38.6 76.3011 38.836 76.2051 39.076C76.1171 39.308 76.0291 39.532 75.9411 39.748L74.8371 42.448H74.1771L73.0491 39.748C72.9611 39.532 72.8691 39.308 72.7731 39.076C72.6851 38.836 72.5971 38.6 72.5091 38.368H72.4611C72.4691 38.52 72.4771 38.688 72.4851 38.872C72.5011 39.048 72.5131 39.228 72.5211 39.412C72.5371 39.588 72.5491 39.764 72.5571 39.94C72.5651 40.108 72.5691 40.256 72.5691 40.384V43H71.6811Z" fill="#BDBDBD"/>
<path d="M79.3949 43V37.168H80.3549V39.592C80.3549 39.904 80.3429 40.248 80.3189 40.624C80.3029 40.992 80.2829 41.364 80.2589 41.74H80.3069C80.4189 41.556 80.5469 41.348 80.6909 41.116C80.8429 40.884 80.9709 40.676 81.0749 40.492L83.2829 37.168H84.2069V43H83.2469V40.576C83.2469 40.264 83.2549 39.924 83.2709 39.556C83.2949 39.18 83.3189 38.8 83.3429 38.416H83.2949C83.1829 38.6 83.0509 38.812 82.8989 39.052C82.7549 39.284 82.6309 39.488 82.5269 39.664L80.3069 43H79.3949Z" fill="#BDBDBD"/>
<path d="M86.3 45.46V37.168H87.116L87.2 37.84H87.236C87.5 37.616 87.788 37.424 88.1 37.264C88.42 37.104 88.752 37.024 89.096 37.024C89.472 37.024 89.804 37.096 90.092 37.24C90.38 37.376 90.62 37.576 90.812 37.84C91.004 38.096 91.148 38.408 91.244 38.776C91.348 39.136 91.4 39.544 91.4 40C91.4 40.496 91.332 40.94 91.196 41.332C91.06 41.716 90.876 42.044 90.644 42.316C90.412 42.588 90.144 42.796 89.84 42.94C89.536 43.076 89.216 43.144 88.88 43.144C88.608 43.144 88.336 43.084 88.064 42.964C87.8 42.844 87.532 42.68 87.26 42.472L87.284 43.492V45.46H86.3ZM88.712 42.316C88.952 42.316 89.172 42.264 89.372 42.16C89.58 42.048 89.756 41.896 89.9 41.704C90.052 41.504 90.168 41.26 90.248 40.972C90.336 40.684 90.38 40.36 90.38 40C90.38 39.68 90.352 39.388 90.296 39.124C90.24 38.86 90.148 38.636 90.02 38.452C89.9 38.26 89.74 38.112 89.54 38.008C89.348 37.904 89.116 37.852 88.844 37.852C88.596 37.852 88.344 37.92 88.088 38.056C87.84 38.192 87.572 38.388 87.284 38.644V41.704C87.548 41.928 87.804 42.088 88.052 42.184C88.3 42.272 88.52 42.316 88.712 42.316Z" fill="#BDBDBD"/>
<path d="M95.4403 43.144C95.0483 43.144 94.6803 43.076 94.3363 42.94C94.0003 42.796 93.7043 42.596 93.4483 42.34C93.2003 42.076 93.0043 41.756 92.8603 41.38C92.7163 41.004 92.6443 40.576 92.6443 40.096C92.6443 39.616 92.7163 39.188 92.8603 38.812C93.0123 38.428 93.2083 38.104 93.4483 37.84C93.6963 37.576 93.9763 37.376 94.2883 37.24C94.6003 37.096 94.9243 37.024 95.2603 37.024C95.6283 37.024 95.9563 37.088 96.2443 37.216C96.5403 37.344 96.7843 37.528 96.9763 37.768C97.1763 38.008 97.3283 38.296 97.4323 38.632C97.5363 38.968 97.5883 39.344 97.5883 39.76C97.5883 39.864 97.5843 39.968 97.5763 40.072C97.5763 40.168 97.5683 40.252 97.5523 40.324H93.6163C93.6563 40.948 93.8483 41.444 94.1923 41.812C94.5443 42.172 95.0003 42.352 95.5603 42.352C95.8403 42.352 96.0963 42.312 96.3283 42.232C96.5683 42.144 96.7963 42.032 97.0123 41.896L97.3603 42.544C97.1043 42.704 96.8203 42.844 96.5083 42.964C96.1963 43.084 95.8403 43.144 95.4403 43.144ZM93.6043 39.616H96.7243C96.7243 39.024 96.5963 38.576 96.3403 38.272C96.0923 37.96 95.7403 37.804 95.2843 37.804C95.0763 37.804 94.8763 37.844 94.6843 37.924C94.5003 38.004 94.3323 38.124 94.1803 38.284C94.0283 38.436 93.9003 38.624 93.7963 38.848C93.7003 39.072 93.6363 39.328 93.6043 39.616Z" fill="#BDBDBD"/>
<path d="M101.672 43V37.168H102.812L103.952 39.904C104.04 40.144 104.128 40.384 104.216 40.624C104.304 40.856 104.392 41.088 104.48 41.32H104.528C104.616 41.088 104.704 40.856 104.792 40.624C104.888 40.384 104.976 40.144 105.056 39.904L106.172 37.168H107.3V43H106.4V40.384C106.4 40.256 106.404 40.108 106.412 39.94C106.42 39.764 106.428 39.588 106.436 39.412C106.452 39.228 106.464 39.048 106.472 38.872C106.488 38.688 106.504 38.52 106.52 38.368H106.472C106.384 38.6 106.292 38.836 106.196 39.076C106.108 39.308 106.02 39.532 105.932 39.748L104.828 42.448H104.168L103.04 39.748C102.952 39.532 102.86 39.308 102.764 39.076C102.676 38.836 102.588 38.6 102.5 38.368H102.452C102.46 38.52 102.468 38.688 102.476 38.872C102.492 39.048 102.504 39.228 102.512 39.412C102.528 39.588 102.54 39.764 102.548 39.94C102.556 40.108 102.56 40.256 102.56 40.384V43H101.672Z" fill="#BDBDBD"/>
<path d="M109.385 43V37.168H110.369V39.532H113.177V37.168H114.161V43H113.177V40.408H110.369V43H109.385Z" fill="#BDBDBD"/>
<path d="M118.512 43.144C118.152 43.144 117.808 43.076 117.48 42.94C117.16 42.804 116.876 42.608 116.628 42.352C116.38 42.088 116.18 41.768 116.028 41.392C115.884 41.008 115.812 40.576 115.812 40.096C115.812 39.608 115.884 39.176 116.028 38.8C116.18 38.416 116.38 38.092 116.628 37.828C116.876 37.564 117.16 37.364 117.48 37.228C117.808 37.092 118.152 37.024 118.512 37.024C118.872 37.024 119.212 37.092 119.532 37.228C119.86 37.364 120.148 37.564 120.396 37.828C120.644 38.092 120.84 38.416 120.984 38.8C121.136 39.176 121.212 39.608 121.212 40.096C121.212 40.576 121.136 41.008 120.984 41.392C120.84 41.768 120.644 42.088 120.396 42.352C120.148 42.608 119.86 42.804 119.532 42.94C119.212 43.076 118.872 43.144 118.512 43.144ZM118.512 42.328C118.76 42.328 118.988 42.276 119.196 42.172C119.404 42.06 119.58 41.908 119.724 41.716C119.876 41.516 119.992 41.28 120.072 41.008C120.152 40.736 120.192 40.432 120.192 40.096C120.192 39.76 120.152 39.456 120.072 39.184C119.992 38.904 119.876 38.664 119.724 38.464C119.58 38.264 119.404 38.112 119.196 38.008C118.988 37.896 118.76 37.84 118.512 37.84C118.264 37.84 118.036 37.896 117.828 38.008C117.62 38.112 117.44 38.264 117.288 38.464C117.144 38.664 117.032 38.904 116.952 39.184C116.872 39.456 116.832 39.76 116.832 40.096C116.832 40.432 116.872 40.736 116.952 41.008C117.032 41.28 117.144 41.516 117.288 41.716C117.44 41.908 117.62 42.06 117.828 42.172C118.036 42.276 118.264 42.328 118.512 42.328Z" fill="#BDBDBD"/>
<path d="M122.868 43V37.168H126.504V37.972H123.852V43H122.868Z" fill="#BDBDBD"/>
<path d="M129.674 43.144C129.314 43.144 128.97 43.076 128.642 42.94C128.322 42.804 128.038 42.608 127.79 42.352C127.542 42.088 127.342 41.768 127.19 41.392C127.046 41.008 126.974 40.576 126.974 40.096C126.974 39.608 127.046 39.176 127.19 38.8C127.342 38.416 127.542 38.092 127.79 37.828C128.038 37.564 128.322 37.364 128.642 37.228C128.97 37.092 129.314 37.024 129.674 37.024C130.034 37.024 130.374 37.092 130.694 37.228C131.022 37.364 131.31 37.564 131.558 37.828C131.806 38.092 132.002 38.416 132.146 38.8C132.298 39.176 132.374 39.608 132.374 40.096C132.374 40.576 132.298 41.008 132.146 41.392C132.002 41.768 131.806 42.088 131.558 42.352C131.31 42.608 131.022 42.804 130.694 42.94C130.374 43.076 130.034 43.144 129.674 43.144ZM129.674 42.328C129.922 42.328 130.15 42.276 130.358 42.172C130.566 42.06 130.742 41.908 130.886 41.716C131.038 41.516 131.154 41.28 131.234 41.008C131.314 40.736 131.354 40.432 131.354 40.096C131.354 39.76 131.314 39.456 131.234 39.184C131.154 38.904 131.038 38.664 130.886 38.464C130.742 38.264 130.566 38.112 130.358 38.008C130.15 37.896 129.922 37.84 129.674 37.84C129.426 37.84 129.198 37.896 128.99 38.008C128.782 38.112 128.602 38.264 128.45 38.464C128.306 38.664 128.194 38.904 128.114 39.184C128.034 39.456 127.994 39.76 127.994 40.096C127.994 40.432 128.034 40.736 128.114 41.008C128.194 41.28 128.306 41.516 128.45 41.716C128.602 41.908 128.782 42.06 128.99 42.172C129.198 42.276 129.426 42.328 129.674 42.328Z" fill="#BDBDBD"/>
<path d="M135.736 43L137.644 39.952L135.88 37.168H136.948L137.728 38.452C137.816 38.612 137.908 38.776 138.004 38.944C138.1 39.104 138.2 39.264 138.304 39.424H138.352C138.44 39.264 138.528 39.104 138.616 38.944C138.704 38.776 138.792 38.612 138.88 38.452L139.588 37.168H140.62L138.856 40.06L140.752 43H139.684L138.832 41.644C138.728 41.468 138.624 41.292 138.52 41.116C138.416 40.94 138.308 40.768 138.196 40.6H138.148C138.044 40.768 137.944 40.94 137.848 41.116C137.752 41.284 137.656 41.46 137.56 41.644L136.768 43H135.736Z" fill="#BDBDBD"/>
<path d="M144.096 43.144C143.736 43.144 143.392 43.076 143.064 42.94C142.744 42.804 142.46 42.608 142.212 42.352C141.964 42.088 141.764 41.768 141.612 41.392C141.468 41.008 141.396 40.576 141.396 40.096C141.396 39.608 141.468 39.176 141.612 38.8C141.764 38.416 141.964 38.092 142.212 37.828C142.46 37.564 142.744 37.364 143.064 37.228C143.392 37.092 143.736 37.024 144.096 37.024C144.456 37.024 144.796 37.092 145.116 37.228C145.444 37.364 145.732 37.564 145.98 37.828C146.228 38.092 146.424 38.416 146.568 38.8C146.72 39.176 146.796 39.608 146.796 40.096C146.796 40.576 146.72 41.008 146.568 41.392C146.424 41.768 146.228 42.088 145.98 42.352C145.732 42.608 145.444 42.804 145.116 42.94C144.796 43.076 144.456 43.144 144.096 43.144ZM144.096 42.328C144.344 42.328 144.572 42.276 144.78 42.172C144.988 42.06 145.164 41.908 145.308 41.716C145.46 41.516 145.576 41.28 145.656 41.008C145.736 40.736 145.776 40.432 145.776 40.096C145.776 39.76 145.736 39.456 145.656 39.184C145.576 38.904 145.46 38.664 145.308 38.464C145.164 38.264 144.988 38.112 144.78 38.008C144.572 37.896 144.344 37.84 144.096 37.84C143.848 37.84 143.62 37.896 143.412 38.008C143.204 38.112 143.024 38.264 142.872 38.464C142.728 38.664 142.616 38.904 142.536 39.184C142.456 39.456 142.416 39.76 142.416 40.096C142.416 40.432 142.456 40.736 142.536 41.008C142.616 41.28 142.728 41.516 142.872 41.716C143.024 41.908 143.204 42.06 143.412 42.172C143.62 42.276 143.848 42.328 144.096 42.328Z" fill="#BDBDBD"/>
<path d="M148.452 45.46V37.168H149.268L149.352 37.84H149.388C149.652 37.616 149.94 37.424 150.252 37.264C150.572 37.104 150.904 37.024 151.248 37.024C151.624 37.024 151.956 37.096 152.244 37.24C152.532 37.376 152.772 37.576 152.964 37.84C153.156 38.096 153.3 38.408 153.396 38.776C153.5 39.136 153.552 39.544 153.552 40C153.552 40.496 153.484 40.94 153.348 41.332C153.212 41.716 153.028 42.044 152.796 42.316C152.564 42.588 152.296 42.796 151.992 42.94C151.688 43.076 151.368 43.144 151.032 43.144C150.76 43.144 150.488 43.084 150.216 42.964C149.952 42.844 149.684 42.68 149.412 42.472L149.436 43.492V45.46H148.452ZM150.864 42.316C151.104 42.316 151.324 42.264 151.524 42.16C151.732 42.048 151.908 41.896 152.052 41.704C152.204 41.504 152.32 41.26 152.4 40.972C152.488 40.684 152.532 40.36 152.532 40C152.532 39.68 152.504 39.388 152.448 39.124C152.392 38.86 152.3 38.636 152.172 38.452C152.052 38.26 151.892 38.112 151.692 38.008C151.5 37.904 151.268 37.852 150.996 37.852C150.748 37.852 150.496 37.92 150.24 38.056C149.992 38.192 149.724 38.388 149.436 38.644V41.704C149.7 41.928 149.956 42.088 150.204 42.184C150.452 42.272 150.672 42.316 150.864 42.316Z" fill="#BDBDBD"/>
<path d="M157.496 43.144C157.136 43.144 156.792 43.076 156.464 42.94C156.144 42.804 155.86 42.608 155.612 42.352C155.364 42.088 155.164 41.768 155.012 41.392C154.868 41.008 154.796 40.576 154.796 40.096C154.796 39.608 154.868 39.176 155.012 38.8C155.164 38.416 155.364 38.092 155.612 37.828C155.86 37.564 156.144 37.364 156.464 37.228C156.792 37.092 157.136 37.024 157.496 37.024C157.856 37.024 158.196 37.092 158.516 37.228C158.844 37.364 159.132 37.564 159.38 37.828C159.628 38.092 159.824 38.416 159.968 38.8C160.12 39.176 160.196 39.608 160.196 40.096C160.196 40.576 160.12 41.008 159.968 41.392C159.824 41.768 159.628 42.088 159.38 42.352C159.132 42.608 158.844 42.804 158.516 42.94C158.196 43.076 157.856 43.144 157.496 43.144ZM157.496 42.328C157.744 42.328 157.972 42.276 158.18 42.172C158.388 42.06 158.564 41.908 158.708 41.716C158.86 41.516 158.976 41.28 159.056 41.008C159.136 40.736 159.176 40.432 159.176 40.096C159.176 39.76 159.136 39.456 159.056 39.184C158.976 38.904 158.86 38.664 158.708 38.464C158.564 38.264 158.388 38.112 158.18 38.008C157.972 37.896 157.744 37.84 157.496 37.84C157.248 37.84 157.02 37.896 156.812 38.008C156.604 38.112 156.424 38.264 156.272 38.464C156.128 38.664 156.016 38.904 155.936 39.184C155.856 39.456 155.816 39.76 155.816 40.096C155.816 40.432 155.856 40.736 155.936 41.008C156.016 41.28 156.128 41.516 156.272 41.716C156.424 41.908 156.604 42.06 156.812 42.172C157.02 42.276 157.248 42.328 157.496 42.328Z" fill="#BDBDBD"/>
<path d="M161.852 43V37.168H162.836V42.196H164.888V37.168H165.836V42.196H167.9V37.168H168.872V43H161.852Z" fill="#BDBDBD"/>
<path d="M173.324 43.144C172.932 43.144 172.564 43.076 172.22 42.94C171.884 42.796 171.588 42.596 171.332 42.34C171.084 42.076 170.888 41.756 170.744 41.38C170.6 41.004 170.528 40.576 170.528 40.096C170.528 39.616 170.6 39.188 170.744 38.812C170.896 38.428 171.092 38.104 171.332 37.84C171.58 37.576 171.86 37.376 172.172 37.24C172.484 37.096 172.808 37.024 173.144 37.024C173.512 37.024 173.84 37.088 174.128 37.216C174.424 37.344 174.668 37.528 174.86 37.768C175.06 38.008 175.212 38.296 175.316 38.632C175.42 38.968 175.472 39.344 175.472 39.76C175.472 39.864 175.468 39.968 175.46 40.072C175.46 40.168 175.452 40.252 175.436 40.324H171.5C171.54 40.948 171.732 41.444 172.076 41.812C172.428 42.172 172.884 42.352 173.444 42.352C173.724 42.352 173.98 42.312 174.212 42.232C174.452 42.144 174.68 42.032 174.896 41.896L175.244 42.544C174.988 42.704 174.704 42.844 174.392 42.964C174.08 43.084 173.724 43.144 173.324 43.144ZM171.488 39.616H174.608C174.608 39.024 174.48 38.576 174.224 38.272C173.976 37.96 173.624 37.804 173.168 37.804C172.96 37.804 172.76 37.844 172.568 37.924C172.384 38.004 172.216 38.124 172.064 38.284C171.912 38.436 171.784 38.624 171.68 38.848C171.584 39.072 171.52 39.328 171.488 39.616Z" fill="#BDBDBD"/>
<path d="M177.034 43V37.168H180.67V37.972H178.018V43H177.034Z" fill="#BDBDBD"/>
<path d="M183.84 43.144C183.48 43.144 183.136 43.076 182.808 42.94C182.488 42.804 182.204 42.608 181.956 42.352C181.708 42.088 181.508 41.768 181.356 41.392C181.212 41.008 181.14 40.576 181.14 40.096C181.14 39.608 181.212 39.176 181.356 38.8C181.508 38.416 181.708 38.092 181.956 37.828C182.204 37.564 182.488 37.364 182.808 37.228C183.136 37.092 183.48 37.024 183.84 37.024C184.2 37.024 184.54 37.092 184.86 37.228C185.188 37.364 185.476 37.564 185.724 37.828C185.972 38.092 186.168 38.416 186.312 38.8C186.464 39.176 186.54 39.608 186.54 40.096C186.54 40.576 186.464 41.008 186.312 41.392C186.168 41.768 185.972 42.088 185.724 42.352C185.476 42.608 185.188 42.804 184.86 42.94C184.54 43.076 184.2 43.144 183.84 43.144ZM183.84 42.328C184.088 42.328 184.316 42.276 184.524 42.172C184.732 42.06 184.908 41.908 185.052 41.716C185.204 41.516 185.32 41.28 185.4 41.008C185.48 40.736 185.52 40.432 185.52 40.096C185.52 39.76 185.48 39.456 185.4 39.184C185.32 38.904 185.204 38.664 185.052 38.464C184.908 38.264 184.732 38.112 184.524 38.008C184.316 37.896 184.088 37.84 183.84 37.84C183.592 37.84 183.364 37.896 183.156 38.008C182.948 38.112 182.768 38.264 182.616 38.464C182.472 38.664 182.36 38.904 182.28 39.184C182.2 39.456 182.16 39.76 182.16 40.096C182.16 40.432 182.2 40.736 182.28 41.008C182.36 41.28 182.472 41.516 182.616 41.716C182.768 41.908 182.948 42.06 183.156 42.172C183.364 42.276 183.592 42.328 183.84 42.328Z" fill="#BDBDBD"/>
<path d="M62.7261 29.75C62.5506 29.75 62.3991 29.6833 62.2715 29.55C62.1439 29.4167 62.0801 29.2583 62.0801 29.075V12.925C62.0801 12.7417 62.1439 12.5833 62.2715 12.45C62.3991 12.3167 62.5506 12.25 62.7261 12.25H69.9758C72.209 12.25 73.9636 12.7667 75.2396 13.8C76.5317 14.8333 77.1777 16.3583 77.1777 18.375C77.1777 20.375 76.5396 21.8667 75.2636 22.85C73.9875 23.8167 72.2249 24.3 69.9758 24.3H68.301V29.075C68.301 29.2583 68.2372 29.4167 68.1096 29.55C67.9819 29.6833 67.8304 29.75 67.6549 29.75H62.7261ZM69.8562 19.675C70.1433 19.675 70.3985 19.5667 70.6218 19.35C70.8451 19.1167 70.9568 18.775 70.9568 18.325C70.9568 17.9417 70.8691 17.6083 70.6936 17.325C70.5181 17.0417 70.239 16.9 69.8562 16.9H68.1813V19.675H69.8562Z" fill="#FB8C00"/>
<path d="M87.4679 30C85.0753 30 83.1691 29.425 81.7495 28.275C80.3299 27.125 79.5722 25.45 79.4765 23.25C79.4605 22.8 79.4526 22.075 79.4526 21.075C79.4526 20.0583 79.4605 19.3167 79.4765 18.85C79.5243 17.4167 79.8832 16.1833 80.5532 15.15C81.2391 14.1167 82.1722 13.3333 83.3526 12.8C84.533 12.2667 85.9047 12 87.4679 12C89.0311 12 90.4029 12.2667 91.5833 12.8C92.7637 13.3333 93.6888 14.1167 94.3588 15.15C95.0447 16.1833 95.4115 17.4167 95.4594 18.85C95.4913 19.7833 95.5072 20.525 95.5072 21.075C95.5072 21.625 95.4913 22.35 95.4594 23.25C95.3637 25.45 94.606 27.125 93.1864 28.275C91.7667 29.425 89.8606 30 87.4679 30ZM87.4679 25.125C88.0103 25.125 88.433 24.9583 88.736 24.625C89.0551 24.2917 89.2225 23.7833 89.2385 23.1C89.2704 22.1333 89.2864 21.425 89.2864 20.975C89.2864 20.4917 89.2704 19.8 89.2385 18.9C89.2225 18.2167 89.0551 17.7083 88.736 17.375C88.417 17.0417 87.9943 16.875 87.4679 16.875C86.9416 16.875 86.5189 17.0417 86.1998 17.375C85.8808 17.7083 85.7133 18.2167 85.6974 18.9C85.6814 19.35 85.6735 20.0417 85.6735 20.975C85.6735 21.9083 85.6814 22.6167 85.6974 23.1C85.7133 23.7833 85.8728 24.2917 86.1759 24.625C86.4949 24.9583 86.9256 25.125 87.4679 25.125Z" fill="#FB8C00"/>
<path d="M105.609 30C103.918 30 102.482 29.7583 101.302 29.275C100.138 28.7917 99.2602 28.15 98.67 27.35C98.0798 26.5333 97.7688 25.6417 97.7369 24.675C97.7369 24.525 97.7847 24.4 97.8804 24.3C97.9921 24.1833 98.1197 24.125 98.2633 24.125H102.809C103.033 24.125 103.208 24.1583 103.336 24.225C103.479 24.275 103.647 24.3833 103.838 24.55C104.301 24.9333 104.891 25.125 105.609 25.125C106.151 25.125 106.582 25.0667 106.901 24.95C107.236 24.8167 107.403 24.6417 107.403 24.425C107.403 24.125 107.188 23.9 106.757 23.75C106.326 23.5833 105.513 23.4167 104.317 23.25C100.201 22.6833 98.1436 20.85 98.1436 17.75C98.1436 16.6333 98.4467 15.6417 99.0528 14.775C99.6749 13.8917 100.536 13.2083 101.637 12.725C102.738 12.2417 104.006 12 105.441 12C106.941 12 108.257 12.2667 109.389 12.8C110.522 13.3333 111.391 14.0083 111.997 14.825C112.603 15.625 112.922 16.4083 112.954 17.175C112.954 17.325 112.898 17.4583 112.787 17.575C112.691 17.675 112.579 17.725 112.452 17.725H107.666C107.443 17.725 107.268 17.7 107.14 17.65C107.012 17.5833 106.869 17.475 106.709 17.325C106.374 17.025 105.952 16.875 105.441 16.875C104.676 16.875 104.293 17.1083 104.293 17.575C104.293 17.825 104.476 18.0333 104.843 18.2C105.226 18.3667 105.928 18.5167 106.949 18.65C108.544 18.8667 109.82 19.1917 110.777 19.625C111.75 20.0583 112.452 20.6417 112.882 21.375C113.329 22.0917 113.552 23 113.552 24.1C113.552 25.2833 113.209 26.325 112.523 27.225C111.838 28.1083 110.888 28.7917 109.676 29.275C108.48 29.7583 107.124 30 105.609 30Z" fill="#FB8C00"/>
<path d="M116.908 29.75C116.733 29.75 116.581 29.6833 116.454 29.55C116.326 29.4167 116.262 29.2583 116.262 29.075V12.925C116.262 12.7417 116.326 12.5833 116.454 12.45C116.581 12.3167 116.733 12.25 116.908 12.25H121.789C121.965 12.25 122.116 12.3167 122.244 12.45C122.372 12.5833 122.435 12.7417 122.435 12.925V29.075C122.435 29.2583 122.372 29.4167 122.244 29.55C122.116 29.6833 121.965 29.75 121.789 29.75H116.908Z" fill="#FB8C00"/>
<path d="M129.303 29.75C129.127 29.75 128.976 29.6833 128.848 29.55C128.721 29.4167 128.657 29.2583 128.657 29.075V17.625H124.685C124.51 17.625 124.358 17.5583 124.23 17.425C124.103 17.2917 124.039 17.1333 124.039 16.95V12.925C124.039 12.7417 124.103 12.5833 124.23 12.45C124.358 12.3167 124.51 12.25 124.685 12.25H138.706C138.881 12.25 139.033 12.3167 139.161 12.45C139.288 12.5833 139.352 12.7417 139.352 12.925V16.95C139.352 17.1333 139.288 17.2917 139.161 17.425C139.033 17.5583 138.881 17.625 138.706 17.625H134.734V29.075C134.734 29.2583 134.67 29.4167 134.543 29.55C134.415 29.6833 134.264 29.75 134.088 29.75H129.303Z" fill="#333333"/>
<path d="M142.674 29.75C142.498 29.75 142.347 29.6833 142.219 29.55C142.091 29.4167 142.028 29.2583 142.028 29.075V12.925C142.028 12.7417 142.091 12.5833 142.219 12.45C142.347 12.3167 142.498 12.25 142.674 12.25H147.555C147.73 12.25 147.882 12.3167 148.009 12.45C148.137 12.5833 148.201 12.7417 148.201 12.925V29.075C148.201 29.2583 148.137 29.4167 148.009 29.55C147.882 29.6833 147.73 29.75 147.555 29.75H142.674Z" fill="#333333"/>
<path d="M152.44 29.75C152.264 29.75 152.113 29.6833 151.985 29.55C151.857 29.4167 151.794 29.2583 151.794 29.075V12.925C151.794 12.7417 151.857 12.5833 151.985 12.45C152.113 12.3167 152.264 12.25 152.44 12.25H156.22C156.667 12.25 157.01 12.475 157.249 12.925L160.718 18.925L164.188 12.925C164.427 12.475 164.77 12.25 165.216 12.25H168.997C169.172 12.25 169.324 12.3167 169.451 12.45C169.579 12.5833 169.643 12.7417 169.643 12.925V29.075C169.643 29.2583 169.579 29.4167 169.451 29.55C169.324 29.6833 169.172 29.75 168.997 29.75H164.666C164.491 29.75 164.339 29.6833 164.211 29.55C164.084 29.4167 164.02 29.2583 164.02 29.075V22.225L162.441 24.925C162.329 25.1083 162.202 25.2583 162.058 25.375C161.93 25.4917 161.763 25.55 161.556 25.55H159.881C159.673 25.55 159.498 25.4917 159.354 25.375C159.227 25.2583 159.107 25.1083 158.995 24.925L157.416 22.225V29.075C157.416 29.2583 157.353 29.4167 157.225 29.55C157.097 29.6833 156.946 29.75 156.77 29.75H152.44Z" fill="#333333"/>
<path d="M173.888 29.75C173.713 29.75 173.561 29.6833 173.434 29.55C173.306 29.4167 173.242 29.2583 173.242 29.075V12.925C173.242 12.7417 173.306 12.5833 173.434 12.45C173.561 12.3167 173.713 12.25 173.888 12.25H186.163C186.338 12.25 186.49 12.3167 186.617 12.45C186.745 12.5833 186.809 12.7417 186.809 12.925V16.45C186.809 16.6333 186.745 16.7917 186.617 16.925C186.49 17.0583 186.338 17.125 186.163 17.125H178.985V18.7H185.636C185.812 18.7 185.963 18.7667 186.091 18.9C186.218 19.0333 186.282 19.1917 186.282 19.375V22.625C186.282 22.8083 186.218 22.9667 186.091 23.1C185.963 23.2333 185.812 23.3 185.636 23.3H178.985V24.875H186.354C186.53 24.875 186.681 24.9417 186.809 25.075C186.936 25.2083 187 25.3667 187 25.55V29.075C187 29.2583 186.936 29.4167 186.809 29.55C186.681 29.6833 186.53 29.75 186.354 29.75H173.888Z" fill="#333333"/>
<circle cx="25" cy="25" r="25" fill="white"/>
<path fill-rule="evenodd" clip-rule="evenodd" d="M39.3333 15.0833L31.0833 32.25C33.5833 31 35.5 27.5833 36.4167 25.5833C34.1667 30.9167 31.0833 35.25 26.6667 38.0833L39.3333 15.0833ZM44 25C44 24.0833 43.9167 23.0833 43.8333 22.1667C40.4167 31.75 31.25 41.6667 15.5 41.4167C18.3333 43.0833 21.5833 44 25 44C35.5 44 44 35.5 44 25ZM14.0833 25.9167L21.75 33.75L25.6667 37.75L38.4167 15.8333L27.3333 30.25L14.0833 25.9167ZM6 25C6 30.9167 8.75 36.25 13 39.75C16.3333 39.3333 19.1667 38.5 21.5833 37.3333L13.4167 25.75L13 25.3333L13.5833 25.4167L25.0833 27.5833L39.1667 14.25L33.0833 18.9167L32.6667 19.1667C34.5833 16 35.9167 12.6667 35.5833 9.16667C32.5 7.16667 28.9167 6 25 6C14.5 6 6 14.5 6 25ZM44.9167 9.91667C45.5 12.25 45.5 15.1667 44.8333 18.25C45.5833 20.4167 46 22.6667 46 25C46 36.5833 36.5833 46 25 46C19.9167 46 15.25 44.1667 11.5833 41.1667C9.5 40.9167 7.25 40.5 4.91667 39.9167C9.5 46.0833 16.8333 50 25 50C38.8333 50 50 38.8333 50 25C50 19.3333 48.0833 14.1667 44.9167 9.91667ZM10.25 39.9167C6.41667 36.1667 4 30.8333 4 25C4 13.4167 13.4167 4 25 4C28.6667 4 32.0833 4.91667 35 6.58333C34.4167 4.75 33.4167 2.91667 31.8333 1C29.6667 0.333333 27.4167 0 25 0C16.8333 0 9.58333 3.91667 5 10C1.83333 14.1667 0 19.3333 0 25C0 30.5833 1.83333 35.75 4.91667 39.9167C6.83333 40 8.58333 40 10.25 39.9167Z" fill="url(#paint0_linear_58_6166)"/>
<defs>
<linearGradient id="paint0_linear_58_6166" x1="42.2675" y1="7.73234" x2="7.15383" y2="42.846" gradientUnits="userSpaceOnUse">
<stop stop-color="#FFA726"/>
<stop offset="1" stop-color="#FB8C00"/>
</linearGradient>
</defs>
</svg>
