<svg width="14" height="14" viewBox="0 0 14 14" fill="none" xmlns="http://www.w3.org/2000/svg">
<path fill-rule="evenodd" clip-rule="evenodd" d="M0 7C0 3.14029 3.14038 0 7 0C10.8596 0 14 3.14029 14 7C14 10.8597 10.8596 14 7 14C3.14038 14 0 10.8597 0 7ZM1.39941 7C1.39941 10.0882 3.91187 12.6006 7 12.6006C10.0881 12.6006 12.6006 10.088 12.6006 7C12.6006 3.91196 10.0881 1.39935 7 1.39935C3.91187 1.39935 1.39941 3.9118 1.39941 7ZM7.69971 6.68906C7.69971 6.72638 7.69434 6.76212 7.68872 6.79788L9.61182 8.52188C9.89966 8.77982 9.92358 9.22202 9.66577 9.50983C9.52759 9.66391 9.33618 9.74243 9.14453 9.74243C8.97827 9.74243 8.81128 9.68365 8.67773 9.56378L6.51245 7.62289C6.29858 7.43082 6.30005 6.78229 6.30029 6.6947V6.68906V3.63754C6.30029 3.25116 6.61353 2.93787 7 2.93787C7.38647 2.93787 7.69971 3.25116 7.69971 3.63754V6.68906Z" fill="white"/>
</svg>
