<svg width="14" height="14" viewBox="0 0 14 14" fill="none" xmlns="http://www.w3.org/2000/svg">
<path fill-rule="evenodd" clip-rule="evenodd" d="M0 7C0 3.14032 3.14062 0 7 0C10.8594 0 14 3.14032 14 7C14 10.8597 10.8594 14 7 14C3.14062 14 0 10.8597 0 7ZM1.39941 7C1.39941 10.0882 3.91211 12.6006 7 12.6006C10.0879 12.6006 12.6006 10.0881 12.6006 7C12.6006 3.91193 10.0879 1.39935 7 1.39935C3.91211 1.39935 1.39941 3.9118 1.39941 7ZM7.69141 6.78308L7.68945 6.79791L9.6123 8.52191C9.90039 8.77985 9.92383 9.22205 9.66602 9.50983C9.52832 9.66388 9.33691 9.74243 9.14453 9.74243C8.97852 9.74243 8.81152 9.68365 8.67773 9.56378L6.5127 7.62286C6.29297 7.4259 6.30078 6.7486 6.30078 6.68903V3.63751C6.30078 3.25116 6.61426 2.93787 7 2.93787C7.38672 2.93787 7.7002 3.25116 7.7002 3.63751V6.68903C7.7002 6.72119 7.69629 6.7522 7.69141 6.78308Z" fill="#BDBDBD"/>
</svg>
