<svg width="20" height="20" viewBox="0 0 20 20" fill="none" xmlns="http://www.w3.org/2000/svg">
<path d="M8.29547 -2.21918e-08C3.73303 -2.21918e-08 1.26175e-08 3.72477 1.26175e-08 8.2877C1.26175e-08 12.8506 3.73303 16.5841 8.29547 16.5841C10.0496 16.5841 11.6742 16.0224 13.0135 15.0889L17.4981 19.5656C18.0686 20.1448 19.0016 20.1448 19.5721 19.5656C20.1426 18.9952 20.1426 18.0708 19.5721 17.5003L15.0877 13.0149C16.0296 11.6668 16.5825 10.0423 16.5825 8.28793C16.5823 3.72499 12.8495 -2.21918e-08 8.29547 -2.21918e-08ZM8.29547 2.92105C11.2682 2.92105 13.6531 5.30643 13.6531 8.2877C13.6531 11.269 11.2682 13.6544 8.29547 13.6544C5.31429 13.6544 2.9294 11.269 2.9294 8.2877C2.92917 5.30643 5.31407 2.92105 8.29547 2.92105Z" fill="#333333"/>
</svg>
