<svg width="16" height="9" viewBox="0 0 16 9" fill="none" xmlns="http://www.w3.org/2000/svg">
<path fill-rule="evenodd" clip-rule="evenodd" d="M8.78466 8.96238C8.78466 8.96238 9.07343 8.93075 9.22133 8.77411C9.35672 8.6306 9.35202 8.35977 9.35202 8.35977C9.35202 8.35977 9.33402 7.09514 9.92955 6.90842C10.5165 6.72478 11.2701 8.13138 12.0699 8.67227C12.674 9.08121 13.1326 8.9917 13.1326 8.9917L15.2697 8.96238C15.2697 8.96238 16.3872 8.89448 15.8574 8.02799C15.8136 7.957 15.5483 7.3868 14.2688 6.21553C12.9283 4.98948 13.1083 5.18777 14.722 3.06668C15.7048 1.77504 16.0977 0.986477 15.9748 0.649293C15.8582 0.326769 15.1351 0.412415 15.1351 0.412415L12.7296 0.427076C12.7296 0.427076 12.5511 0.403156 12.4189 0.481087C12.2898 0.557474 12.206 0.735711 12.206 0.735711C12.206 0.735711 11.8257 1.73492 11.3178 2.58521C10.2465 4.37838 9.81843 4.47328 9.64313 4.36217C9.23542 4.10215 9.33715 3.31899 9.33715 2.76267C9.33715 1.02428 9.60479 0.299764 8.81675 0.112268C8.55537 0.049769 8.36286 0.00887483 7.69377 0.00193054C6.83531 -0.00655693 6.10909 0.00501688 5.69746 0.203315C5.42357 0.335257 5.21227 0.630003 5.3414 0.646978C5.50026 0.667811 5.86024 0.742655 6.05118 0.998822C6.29769 1.32983 6.28908 2.0721 6.28908 2.0721C6.28908 2.0721 6.43072 4.11835 5.95806 4.37221C5.63408 4.54658 5.18958 4.19088 4.23407 2.5636C3.74497 1.73029 3.37561 0.809012 3.37561 0.809012C3.37561 0.809012 3.30439 0.636948 3.17683 0.544357C3.02267 0.432477 2.80747 0.397755 2.80747 0.397755L0.521607 0.412415C0.521607 0.412415 0.178063 0.421674 0.0520703 0.569048C-0.0598359 0.699446 0.0434621 0.970274 0.0434621 0.970274C0.0434621 0.970274 1.83318 5.09904 3.86001 7.18001C5.71859 9.08738 7.82837 8.96238 7.82837 8.96238H8.78466Z" fill="white"/>
</svg>
