<svg width="16" height="10" viewBox="0 0 16 10" fill="none" xmlns="http://www.w3.org/2000/svg">
<path fill-rule="evenodd" clip-rule="evenodd" d="M5.43945 6.0332V4.4043H9.94629C9.98682 4.6416 10.021 4.87988 10.021 5.19141C10.021 7.90625 8.19385 9.83301 5.43945 9.83301C2.80078 9.83301 0.666504 7.70898 0.666504 5.08301C0.666504 2.45703 2.80078 0.333008 5.43945 0.333008C6.72803 0.333008 7.80518 0.800781 8.63672 1.5752L7.34131 2.81641C6.98682 2.47754 6.3667 2.08398 5.43945 2.08398C3.80957 2.08398 2.47998 3.42773 2.47998 5.08301C2.47998 6.73828 3.80957 8.08203 5.43945 8.08203C7.32764 8.08203 8.03711 6.73242 8.146 6.0332H5.43945ZM14.3027 4.4043H15.6665V5.76074H14.3027V7.11816H12.9395V5.76074H11.5757V4.4043H12.9395V3.04688H14.3027V4.4043Z" fill="white"/>
</svg>
