<svg width="9" height="16" viewBox="0 0 9 16" fill="none" xmlns="http://www.w3.org/2000/svg">
<path fill-rule="evenodd" clip-rule="evenodd" d="M6.15048 4.2041C6.15048 3.32031 5.40537 2.60156 4.48984 2.60156C3.57529 2.60156 2.82968 3.32031 2.82968 4.2041C2.82968 5.08691 3.57529 5.80664 4.48984 5.80664C5.40537 5.80664 6.15048 5.08691 6.15048 4.2041ZM8.50009 4.2041C8.50009 6.33789 6.70224 8.07324 4.48984 8.07324C2.27841 8.07324 0.480072 6.33789 0.480072 4.2041C0.480072 2.06934 2.27841 0.333008 4.48984 0.333008C6.70224 0.333008 8.50009 2.06934 8.50009 4.2041ZM8.45126 10.3018C7.72617 10.7412 6.93906 11.0537 6.12265 11.2324L8.36435 13.3965C8.82333 13.8389 8.82333 14.5576 8.36435 15C7.90537 15.4434 7.1622 15.4434 6.70371 15L4.4996 12.874L2.29746 15C2.06796 15.2217 1.76718 15.332 1.4664 15.332C1.16611 15.332 0.865326 15.2217 0.635834 15C0.177338 14.5576 0.177338 13.8398 0.635346 13.3965L2.87753 11.2324C2.06113 11.0537 1.27402 10.7412 0.54892 10.3018C9.20298e-05 9.96777 -0.164947 9.26855 0.180756 8.73828C0.525483 8.20703 1.25058 8.04785 1.80038 8.38184C3.44199 9.37793 5.55673 9.37891 7.19931 8.38184C7.74912 8.04785 8.47421 8.20703 8.81943 8.73828C9.16513 9.26758 9.00009 9.96777 8.45126 10.3018Z" fill="white"/>
</svg>
