<svg width="30" height="30" viewBox="0 0 30 30" fill="#F68634" xmlns="http://www.w3.org/2000/svg">
<path fill-rule="evenodd" clip-rule="evenodd" d="M16.6503 10.8709C16.6503 9.98717 15.9055 9.26852 14.9899 9.26852C14.0751 9.26852 13.3296 9.98717 13.3296 10.8709C13.3296 11.754 14.0751 12.4731 14.9899 12.4731C15.9055 12.4731 16.6503 11.754 16.6503 10.8709ZM19 10.8709C19 13.0049 17.2019 14.7407 14.99 14.7407C12.7785 14.7407 10.98 13.0049 10.98 10.8709C10.98 8.73629 12.7785 7 14.99 7C17.2019 7 19 8.73629 19 10.8709ZM18.9511 16.9693C18.226 17.4089 17.4388 17.7206 16.6225 17.9001L18.8642 20.0642C19.3235 20.5065 19.3235 21.225 18.8642 21.6678C18.4055 22.1106 17.6619 22.1106 17.2037 21.6678L14.9996 19.5412L12.7975 21.6678C12.5679 21.8889 12.267 21.9996 11.9662 21.9996C11.6658 21.9996 11.3654 21.8889 11.1358 21.6678C10.677 21.225 10.677 20.507 11.1353 20.0642L13.3772 17.9001C12.561 17.7206 11.7737 17.4085 11.0487 16.9693C10.4999 16.6354 10.3351 15.9357 10.6808 15.4056C11.0256 14.8748 11.7507 14.715 12.3004 15.0489C13.942 16.0457 16.0568 16.046 17.6994 15.0489C18.249 14.715 18.9739 14.8748 19.3194 15.4056C19.6651 15.9353 19.4998 16.6354 18.9511 16.9693Z"/>
</svg>
