<svg width="30" height="30" viewBox="0 0 30 30" fill="#55ACEE" xmlns="http://www.w3.org/2000/svg">
<path fill-rule="evenodd" clip-rule="evenodd" d="M15.2834 12.1922L15.3159 12.7112L14.774 12.6477C12.8014 12.404 11.0781 11.5778 9.61491 10.1902L8.89958 9.50169L8.71533 10.0101C8.32515 11.1435 8.57443 12.3405 9.38731 13.1455C9.82084 13.5904 9.72329 13.654 8.97545 13.3891C8.71533 13.3044 8.48772 13.2408 8.46605 13.2726C8.39018 13.3468 8.6503 14.3107 8.85623 14.692C9.13802 15.2217 9.71246 15.7407 10.3411 16.0479L10.8722 16.2915L10.2435 16.3021C9.63659 16.3021 9.61491 16.3127 9.67994 16.5351C9.89671 17.2236 10.7529 17.9545 11.7067 18.2723L12.3787 18.4947L11.7934 18.8337C10.9263 19.321 9.90755 19.5964 8.88874 19.6175C8.40102 19.6281 8 19.6705 8 19.7023C8 19.8082 9.32228 20.4014 10.0918 20.6344C12.4004 21.3229 15.1425 21.0264 17.2017 19.8506C18.6649 19.0138 20.1281 17.3507 20.8109 15.7407C21.1794 14.8827 21.5479 13.315 21.5479 12.5629C21.5479 12.0757 21.5804 12.0121 22.1874 11.4295C22.545 11.0906 22.881 10.7198 22.9461 10.6139C23.0544 10.4126 23.0436 10.4126 22.4908 10.5927C21.5696 10.9105 21.4395 10.8681 21.8947 10.3915C22.2307 10.0525 22.6317 9.43813 22.6317 9.25806C22.6317 9.22628 22.4692 9.27924 22.2849 9.37458C22.0898 9.4805 21.6563 9.63939 21.3311 9.73472L20.7459 9.91479L20.2148 9.56524C19.9222 9.37458 19.5103 9.16273 19.2935 9.09917C18.7408 8.95087 17.8954 8.97206 17.3968 9.14154C16.042 9.6182 15.1858 10.8469 15.2834 12.1922Z"/>
</svg>
