<svg width="30" height="30" viewBox="0 0 30 30" fill="#DC4E41" xmlns="http://www.w3.org/2000/svg">
<path fill-rule="nonzero" clip-rule="evenodd" d="M12.7727 15.7V14.0714H17.2795C17.3205 14.3089 17.3545 14.5464 17.3545 14.8586C17.3545 17.5729 15.5273 19.5 12.7727 19.5C10.1341 19.5 8 17.3761 8 14.75C8 12.1239 10.1341 10 12.7727 10C14.0614 10 15.1386 10.4682 15.9705 11.2418L14.675 12.4836C14.3205 12.1443 13.7 11.7507 12.7727 11.7507C11.1432 11.7507 9.81364 13.0943 9.81364 14.75C9.81364 16.4057 11.1432 17.7493 12.7727 17.7493C14.6614 17.7493 15.3705 16.3989 15.4795 15.7H12.7727ZM21.6365 14.0715H23.0001V15.4286H21.6365V16.7858H20.2728V15.4286H18.9092V14.0715H20.2728V12.7144H21.6365V14.0715Z"/>
</svg>
