<svg width="30" height="30" viewBox="0 0 30 30" fill="none" xmlns="http://www.w3.org/2000/svg">
<path fill-rule="evenodd" clip-rule="evenodd" d="M12.8765 16.9194L12.8763 16.9192L12.8765 16.9191L12.8765 16.9189L12.8766 16.919L19.2726 11.4137C19.5533 11.1761 19.2113 11.0602 18.8387 11.2757L10.9448 16.0259L7.53504 15.0108C6.79869 14.7957 6.7934 14.3131 7.70036 13.9661L20.9873 9.0794C21.5942 8.81662 22.1799 9.21843 21.9482 10.1043L19.6855 20.2748C19.5275 20.9975 19.0696 21.1704 18.4353 20.8365L14.9884 18.4076L13.3315 19.9442C13.3263 19.9491 13.3211 19.9539 13.3159 19.9587C13.1306 20.1308 12.9773 20.2731 12.6418 20.2731L12.8765 16.9194Z" fill="#BDBDBD"/>
</svg>
